<svg width="40" height="40" viewBox="0 0 40 40" fill="none" xmlns="http://www.w3.org/2000/svg">
<rect width="40" height="40" rx="8" fill="#E0CEFC"/>
<path d="M28 27H12.5618C12.3277 27 12.1009 26.9178 11.9211 26.7678C11.7413 26.6177 11.6199 26.4093 11.578 26.1789L8.2402 7.82112C8.19831 7.5907 8.07688 7.3823 7.89708 7.23225C7.71728 7.08219 7.49052 7 7.25633 7H5" stroke="#2B2D33" stroke-width="2" stroke-linecap="round" stroke-linejoin="round"/>
<path d="M13 32C14.3807 32 15.5 30.8807 15.5 29.5C15.5 28.1193 14.3807 27 13 27C11.6193 27 10.5 28.1193 10.5 29.5C10.5 30.8807 11.6193 32 13 32Z" stroke="#2B2D33" stroke-width="2" stroke-linecap="round" stroke-linejoin="round"/>
<path d="M28 32C29.3807 32 30.5 30.8807 30.5 29.5C30.5 28.1193 29.3807 27 28 27C26.6193 27 25.5 28.1193 25.5 29.5C25.5 30.8807 26.6193 32 28 32Z" stroke="#2B2D33" stroke-width="2" stroke-linecap="round" stroke-linejoin="round"/>
<path d="M9 12H30.8018C30.9483 12 31.0929 12.0322 31.2256 12.0943C31.3583 12.1563 31.4757 12.2468 31.5695 12.3593C31.6634 12.4717 31.7314 12.6034 31.7687 12.745C31.8061 12.8867 31.8119 13.0348 31.7857 13.1789L30.1493 22.1789C30.1074 22.4093 29.986 22.6177 29.8062 22.7678C29.6264 22.9178 29.3996 23 29.1654 23H11" stroke="#2B2D33" stroke-width="2" stroke-linecap="round" stroke-linejoin="round"/>
</svg>
