<svg width="38" height="38" viewBox="0 0 38 38" fill="none" xmlns="http://www.w3.org/2000/svg">
<g filter="url(#filter0_d_20470_35073)">
<path d="M10.9695 23.0424C10.4178 22.3079 9.86617 21.0225 8.76287 19.3699C8.21122 18.4518 6.55627 16.6155 6.00462 15.881C5.63685 15.1465 5.63685 14.7793 5.82074 14.0448C6.00462 12.943 7.10792 12.0249 8.3951 12.0249C9.31452 12.0249 10.2339 12.7594 10.9695 13.3103C11.3372 13.6775 11.8889 14.412 12.2567 14.7793C12.6244 15.1465 12.6244 15.3302 12.9922 15.6974C13.36 16.2483 13.5438 16.6155 13.36 15.881C13.1761 14.9629 12.9922 13.4939 12.6244 12.0249C12.4405 10.9232 12.2567 10.7395 12.0728 10.005C11.8889 9.08693 11.705 8.53605 11.5211 7.61793C11.3372 7.06705 11.1534 5.59806 10.9695 4.86356C10.7856 3.94543 10.7856 2.29281 11.5211 1.55831C12.0728 1.00744 13.1761 0.823816 13.9116 1.19106C14.831 1.74194 15.3827 3.02731 15.5666 3.57819C15.9343 4.49631 16.3021 5.78168 16.486 7.25068C16.8537 9.08693 17.4054 11.8413 17.4054 12.3922C17.4054 11.6577 17.2215 10.3723 17.4054 9.6378C17.5893 9.08693 17.957 8.35243 18.6926 8.1688C19.2442 7.98518 19.7959 7.98518 20.3475 7.98518C20.8992 8.1688 21.4508 8.53605 21.8186 8.9033C22.5541 10.005 22.5541 12.3922 22.5541 12.2085C22.738 11.474 22.738 10.005 23.1058 9.27055C23.2897 8.9033 24.0252 8.53605 24.393 8.35243C24.9446 8.1688 25.6802 8.1688 26.2318 8.35243C26.5996 8.35243 27.3351 8.9033 27.519 9.27055C27.8867 9.82142 28.0706 11.6577 28.2545 12.3922C28.2545 12.5758 28.4384 11.6577 28.8062 11.1068C29.5417 10.005 32.1161 9.6378 32.3 12.2085C32.3 13.4939 32.3 13.3103 32.3 14.2284C32.3 15.1465 32.3 15.6974 32.3 16.4319C32.3 17.1664 32.1161 18.819 31.9322 19.5535C31.7483 20.1044 31.1967 21.3898 30.645 22.1243C30.645 22.1243 28.6223 24.3278 28.4384 25.4295C28.2545 26.5313 28.2545 26.5313 28.2545 27.2658C28.2545 28.0003 28.4384 28.9184 28.4384 28.9184C28.4384 28.9184 26.9673 29.102 26.2318 28.9184C25.4963 28.7348 24.5768 27.4494 24.393 26.8985C24.0252 26.3476 23.4735 26.3476 23.1058 26.8985C22.738 27.633 21.8186 28.9184 21.0831 28.9184C19.7959 29.102 17.2215 28.9184 15.3827 28.9184C15.3827 28.9184 15.7504 27.0821 15.0149 26.3476C14.4633 25.7968 13.5438 24.8786 12.9922 24.3278L10.9695 23.0424Z" fill="white"/>
<path d="M10.9695 23.0424C10.4178 22.3079 9.86617 21.0225 8.76287 19.3699C8.21122 18.4518 6.55627 16.6155 6.00462 15.881C5.63685 15.1465 5.63685 14.7793 5.82074 14.0448C6.00462 12.943 7.10792 12.0249 8.3951 12.0249C9.31452 12.0249 10.2339 12.7594 10.9695 13.3103C11.3372 13.6775 11.8889 14.412 12.2567 14.7793C12.6244 15.1465 12.6244 15.3302 12.9922 15.6974C13.36 16.2483 13.5438 16.6155 13.36 15.881C13.1761 14.9629 12.9922 13.4939 12.6244 12.0249C12.4405 10.9232 12.2567 10.7395 12.0728 10.005C11.8889 9.08693 11.705 8.53605 11.5211 7.61793C11.3372 7.06705 11.1534 5.59806 10.9695 4.86356C10.7856 3.94543 10.7856 2.29281 11.5211 1.55831C12.0728 1.00744 13.1761 0.823816 13.9116 1.19106C14.831 1.74194 15.3827 3.02731 15.5666 3.57819C15.9343 4.49631 16.3021 5.78168 16.486 7.25068C16.8537 9.08693 17.4054 11.8413 17.4054 12.3922C17.4054 11.6577 17.2215 10.3723 17.4054 9.6378C17.5893 9.08693 17.957 8.35243 18.6926 8.1688C19.2442 7.98518 19.7959 7.98518 20.3475 7.98518C20.8992 8.1688 21.4508 8.53605 21.8186 8.9033C22.5541 10.005 22.5541 12.3922 22.5541 12.2085C22.738 11.474 22.738 10.005 23.1058 9.27055C23.2897 8.9033 24.0252 8.53605 24.393 8.35243C24.9446 8.1688 25.6802 8.1688 26.2318 8.35243C26.5996 8.35243 27.3351 8.9033 27.519 9.27055C27.8867 9.82142 28.0706 11.6577 28.2545 12.3922C28.2545 12.5758 28.4384 11.6577 28.8062 11.1068C29.5417 10.005 32.1161 9.6378 32.3 12.2085C32.3 13.4939 32.3 13.3103 32.3 14.2284C32.3 15.1465 32.3 15.6974 32.3 16.4319C32.3 17.1664 32.1161 18.819 31.9322 19.5535C31.7483 20.1044 31.1967 21.3898 30.645 22.1243C30.645 22.1243 28.6223 24.3278 28.4384 25.4295C28.2545 26.5313 28.2545 26.5313 28.2545 27.2658C28.2545 28.0003 28.4384 28.9184 28.4384 28.9184C28.4384 28.9184 26.9673 29.102 26.2318 28.9184C25.4963 28.7348 24.5768 27.4494 24.393 26.8985C24.0252 26.3476 23.4735 26.3476 23.1058 26.8985C22.738 27.633 21.8186 28.9184 21.0831 28.9184C19.7959 29.102 17.2215 28.9184 15.3827 28.9184C15.3827 28.9184 15.7504 27.0821 15.0149 26.3476C14.4633 25.7968 13.5438 24.8786 12.9922 24.3278L10.9695 23.0424Z" stroke="black" stroke-width="1.5" stroke-linecap="round" stroke-linejoin="round"/>
<path d="M26.2318 23.5933V17.3501" stroke="black" stroke-width="1.5" stroke-linecap="round"/>
<path d="M22.5542 23.5933L22.3704 17.3501" stroke="black" stroke-width="1.5" stroke-linecap="round"/>
<path d="M18.8765 17.3501V23.5933" stroke="black" stroke-width="1.5" stroke-linecap="round"/>
</g>
<defs>
<filter id="filter0_d_20470_35073" x="0.949951" y="0.25" width="36.1" height="37.5" filterUnits="userSpaceOnUse" color-interpolation-filters="sRGB">
<feFlood flood-opacity="0" result="BackgroundImageFix"/>
<feColorMatrix in="SourceAlpha" type="matrix" values="0 0 0 0 0 0 0 0 0 0 0 0 0 0 0 0 0 0 127 0" result="hardAlpha"/>
<feOffset dy="4"/>
<feGaussianBlur stdDeviation="2"/>
<feColorMatrix type="matrix" values="0 0 0 0 0 0 0 0 0 0 0 0 0 0 0 0 0 0 0.25 0"/>
<feBlend mode="normal" in2="BackgroundImageFix" result="effect1_dropShadow_20470_35073"/>
<feBlend mode="normal" in="SourceGraphic" in2="effect1_dropShadow_20470_35073" result="shape"/>
</filter>
</defs>
</svg>
