<svg width="24" height="24" viewBox="0 0 24 24" fill="none" xmlns="http://www.w3.org/2000/svg">
<rect width="24" height="24" rx="4" fill="white"/>
<rect width="24" height="24" rx="4" fill="#29AB70"/>
<rect width="24" height="24" rx="4" fill="#0055A5"/>
<path d="M4.20001 12.96V16.8H4.91042V15.685C5.04928 15.7925 5.20224 15.857 5.36606 15.857C5.6008 15.857 5.79379 15.7469 5.94526 15.5267C6.11526 15.2816 6.20001 14.9198 6.20001 14.4464C6.20001 14.1161 6.13206 13.8188 5.99937 13.5655L5.97614 13.5241L5.95292 13.4898L5.93735 13.4554L5.91412 13.4279L5.8909 13.3935L5.86001 13.3592L5.81355 13.3041L5.78267 13.2766L5.75944 13.2491L5.72855 13.2216L5.69767 13.2009L5.66678 13.1733L5.57412 13.1112L5.53557 13.0976L5.50468 13.0769L5.4738 13.0632L5.43525 13.0496L5.35815 13.0218L5.31961 13.0082L5.20397 12.9877L5.15776 12.974H5.11921L5.07301 12.9672H5.03446L4.988 12.9604L4.20001 12.96ZM4.87187 13.5037H4.9413C5.12045 13.5037 5.25956 13.5959 5.35815 13.7721C5.45699 13.9482 5.50493 14.2206 5.50493 14.5979C5.50493 14.8016 5.47701 14.9625 5.41227 15.0726C5.35049 15.1827 5.27019 15.2378 5.18074 15.2378C5.09426 15.2378 5.02309 15.1856 4.96453 15.0863C4.90597 14.9901 4.87187 14.8511 4.87187 14.6666V13.5037Z" fill="white"/>
<path d="M19.6381 12.576L19.5823 12.6306C19.5823 12.6306 18.1676 14.0781 18.0617 14.1876V12.769H17.4V16.7999H18.0617V15.1449C18.0794 15.1248 18.9293 14.2423 19.0265 14.1415C19.0324 14.2884 19.1235 16.7999 19.1235 16.7999H19.8L19.6381 12.576Z" fill="white"/>
<path d="M16.3852 12.6308L16.3821 12.6366L16.3763 12.6394L16.3704 12.6481L16.3614 12.6567L16.3231 12.6943L16.3085 12.7088L16.2909 12.7261L16.2732 12.7464L16.2525 12.7665L16.232 12.7865L16.2113 12.8096L16.1614 12.8585L16.1085 12.9134L16.0527 12.971L15.9939 13.0317L15.9323 13.0951L15.8676 13.1613L15.7998 13.2275L15.7323 13.2967L15.6645 13.3689L15.5264 13.51L15.4589 13.5792L15.3913 13.6456L15.3266 13.7118L15.265 13.7782L15.2033 13.8389L15.1473 13.8965L15.0944 13.9512L15.068 13.977L15.0445 14.0031L15.021 14.0262L15.0003 14.0492L14.9798 14.0695L14.9621 14.0898L14.9268 14.1244L14.9123 14.1389L14.8887 14.162L14.8798 14.1735L14.8708 14.1793L14.865 14.1881V12.7697H14.2V16.7999H14.8647V15.1452C14.8824 15.1251 15.7325 14.2427 15.8294 14.1419C15.8353 14.2888 15.9266 16.7999 15.9266 16.7999H16.6L16.4381 12.576L16.3852 12.6308Z" fill="white"/>
<path d="M12.8161 15.7857L12.7761 15.7415L12.7417 15.6973L12.7074 15.6477L12.6788 15.5982L12.6502 15.5461L12.6243 15.4939L12.5984 15.4393L12.5785 15.3845L12.5614 15.3246L12.5442 15.2672L12.5298 15.2047L12.5183 15.1421L12.5096 15.0768L12.5039 15.0116L12.4979 14.876C12.4979 14.4929 12.601 14.1877 12.8013 13.9635C13.0217 13.7185 13.3422 13.5961 13.7599 13.5961H13.7913V12.96H13.7599C13.1075 12.96 12.6067 13.1424 12.2663 13.5099C11.9573 13.8411 11.8 14.3024 11.8 14.8812C11.8 15.4391 11.9717 15.9004 12.3063 16.2473C12.6612 16.6122 13.1506 16.7999 13.7686 16.7999H13.8V16.1613H13.7686C13.3628 16.1611 13.0423 16.036 12.8161 15.7857Z" fill="white"/>
<path d="M7.76999 12.9602C7.40711 12.9602 7.11743 13.1403 6.90743 13.4927C6.70343 13.8399 6.59999 14.3015 6.59999 14.8669C6.59999 15.4508 6.69743 15.923 6.89255 16.2674C7.09055 16.6199 7.38599 16.7999 7.76999 16.7999C8.16311 16.7999 8.47343 16.6093 8.69255 16.2411C8.89655 15.8965 8.99999 15.431 8.99999 14.8602C8.99999 14.2973 8.89487 13.8369 8.68487 13.4925L8.63975 13.4269L8.62463 13.394L8.59463 13.3677L8.57951 13.3414L8.54951 13.3151L8.48183 13.2362L8.42927 13.1902L8.39927 13.1704L8.37671 13.1506L8.34671 13.1308L8.32415 13.111L8.29415 13.0913L8.26415 13.078L8.17415 13.0389L8.11415 13.0124L8.08415 13.0058L8.04671 12.9926L8.01671 12.9861L7.97927 12.9795L7.94927 12.973H7.91927L7.84439 12.96H7.80695L7.76999 12.9602ZM7.76999 13.5519C7.96199 13.5519 8.10311 13.6716 8.18999 13.9135C8.27399 14.1317 8.30999 14.4501 8.30999 14.8604C8.30999 15.2574 8.26799 15.5876 8.17511 15.8401L8.15999 15.8664L8.13023 15.9455L8.11535 15.9653L8.10791 15.985L8.09279 15.9983L8.08535 16.0181L8.07023 16.0313L8.06279 16.0511L8.05535 16.0644L8.04047 16.0774L8.02535 16.0905L8.01791 16.1035L8.00303 16.11L7.99559 16.1231L7.98047 16.1361L7.96559 16.1426L7.95047 16.1557L7.92023 16.1687L7.91279 16.1752L7.89767 16.1818H7.88255L7.86743 16.1883L7.85255 16.1948H7.83743L7.82231 16.2013H7.76951C7.60463 16.2013 7.48007 16.0778 7.38695 15.8331C7.29095 15.5779 7.24439 15.2505 7.24439 14.8665C7.24439 14.4747 7.29095 14.1511 7.38695 13.9066C7.47455 13.6728 7.60199 13.5519 7.76999 13.5519Z" fill="white"/>
<path d="M10.4127 15.7857L10.3956 15.7649L10.3754 15.7415L10.3381 15.6973L10.3067 15.6477L10.2752 15.5982L10.2465 15.5461L10.2209 15.4939L10.198 15.4393L10.1751 15.3845L10.1579 15.3246L10.1408 15.2672L10.1179 15.1421L10.1094 15.0768L10.1037 15.0116L10.098 14.9438V14.876C10.098 14.4929 10.198 14.1877 10.4013 13.9635C10.6187 13.7185 10.9392 13.5961 11.357 13.5961H11.3913V12.96H11.357C10.7073 12.96 10.2037 13.1424 9.86631 13.5099C9.55431 13.8411 9.40002 14.3024 9.40002 14.8812C9.40002 15.4391 9.56873 15.9004 9.90637 16.2473C10.2582 16.6122 10.7504 16.7999 11.3687 16.7999H11.4V16.1613H11.3687C10.9591 16.1611 10.6387 16.036 10.4127 15.7857Z" fill="white"/>
<path d="M4.20001 7.19995V11.0399H4.94274V7.83667H5.86026V11.0399H6.60001V7.19995H4.20001Z" fill="white"/>
<path d="M8.97011 7.20017C8.60567 7.20017 8.31315 7.3803 8.10593 7.73575C7.90106 8.08326 7.8 8.54299 7.8 9.107C7.8 9.68939 7.89574 10.1663 8.09253 10.511C8.29187 10.8638 8.58717 11.0399 8.97011 11.0399C9.36093 11.0399 9.66941 10.8558 9.88748 10.4849C10.0924 10.1401 10.2 9.67392 10.2 9.107C10.2 8.54278 10.0883 8.08034 9.88088 7.73575L9.82089 7.63795L9.79429 7.61183L9.77429 7.57923L9.7477 7.55311L9.7277 7.52699L9.62792 7.42898L9.54814 7.37006L9.51496 7.35041L9.48836 7.33724L9.46177 7.3176L9.43518 7.30443L9.40199 7.29127L9.37539 7.27831L9.30902 7.25199L9.28242 7.24551L9.24924 7.23235L9.11648 7.20643H9.0433L9.01011 7.19995L8.97011 7.20017ZM8.97692 7.82059C9.16307 7.82059 9.29476 7.93824 9.38241 8.17333C9.46219 8.38752 9.50198 8.69971 9.50198 9.1072C9.50198 9.4963 9.45539 9.82166 9.36242 10.0672C9.272 10.3075 9.14712 10.4197 8.97692 10.4197H8.91692L8.89012 10.4068H8.87671L8.86331 10.4003L8.85012 10.3938L8.80991 10.3744L8.79651 10.3612L8.78332 10.3547L8.76992 10.3418L8.75651 10.3353L8.74992 10.3221L8.73651 10.3092L8.72311 10.296L8.71652 10.2828L8.70311 10.2697L8.68971 10.25L8.68311 10.2369L8.66971 10.2237L8.66312 10.2041L8.64993 10.1844L8.64333 10.1713L8.63674 10.1451L8.62333 10.1255L8.61014 10.0862L8.59674 10.0666C8.50377 9.81309 8.45718 9.49191 8.45718 9.11305C8.45718 8.72396 8.50377 8.40653 8.59674 8.16622C8.68567 7.93427 8.80927 7.82059 8.97692 7.82059Z" fill="white"/>
<path d="M14.2 7.19995V7.83667H14.8213V11.0399H15.57V7.83667H16.2V7.19995H14.2Z" fill="white"/>
<path d="M12.6392 8.53659H12.2251C12.0547 8.53659 11.9255 8.50117 11.846 8.4301C11.7873 8.38091 11.7607 8.31247 11.7607 8.22501V7.19995H11V8.29606C11 8.54751 11.1086 8.76333 11.3201 8.93279C11.5285 9.09962 11.7873 9.18423 12.0839 9.18423H12.639V11.0399H13.4V7.19995H12.639L12.6392 8.53659Z" fill="white"/>
<path d="M17.1213 7.20039L17 11.0399H17.6576C17.6576 11.0399 17.7188 9.24598 17.7213 9.16116H18.5447C18.5525 9.24052 18.7361 11.0399 18.7361 11.0399H19.4L19.0936 8.23204V8.12972L19.0873 8.09562V8.06151L19.0809 8.03419V8.00008L19.0746 7.97275L19.0683 7.93865L19.0429 7.82934L19.0301 7.80201L19.0174 7.74736L19.0045 7.72003L18.9917 7.69948L18.9788 7.67216L18.9725 7.65161L18.9596 7.62428L18.9467 7.60373L18.9275 7.58318L18.9147 7.55586L18.9018 7.54209L18.8826 7.51476L18.8313 7.45988L18.8121 7.44611L18.7992 7.42556L18.7737 7.40501C18.6078 7.26553 18.3829 7.19995 18.0972 7.19995L17.1213 7.20039ZM17.7534 7.83569H17.9895C18.1605 7.83569 18.2755 7.89449 18.347 8.00642C18.4058 8.09933 18.4452 8.27685 18.4683 8.52563H17.7342V8.41655L17.7405 8.396V8.12273L17.7468 8.0954V7.89711L17.7532 7.88334V7.84268L17.7534 7.83569Z" fill="white"/>
</svg>
