<svg width="26" height="26" viewBox="0 0 26 26" fill="none" xmlns="http://www.w3.org/2000/svg">
<rect x="0.5" y="0.5" width="25" height="25" rx="4.5" fill="white"/>
<rect x="0.5" y="0.5" width="25" height="25" rx="4.5" stroke="#E4E6EB"/>
<path fill-rule="evenodd" clip-rule="evenodd" d="M14.6065 16.9491C15.2523 17.5949 16.2969 17.5949 16.9425 16.9491C17.5877 16.3031 17.5877 15.2575 16.9425 14.6126C16.2969 13.9677 15.2523 13.9677 14.6065 14.6126C13.9639 15.2575 13.9639 16.3031 14.6065 16.9491Z" fill="#ED1651"/>
<path fill-rule="evenodd" clip-rule="evenodd" d="M17.3831 14.1727C18.0265 14.819 19.073 14.819 19.7185 14.1727C20.3619 13.5269 20.3619 12.4808 19.7185 11.8356C19.073 11.1915 18.0265 11.1915 17.3831 11.8356C16.7359 12.4808 16.7359 13.5269 17.3831 14.1727Z" fill="#ED1651"/>
<path fill-rule="evenodd" clip-rule="evenodd" d="M11.8311 14.1727C12.4783 14.819 13.5218 14.819 14.1701 14.1727C14.8137 13.5269 14.8137 12.4808 14.1701 11.8356C13.5218 11.1915 12.4783 11.1915 11.8311 11.8356C11.1904 12.4808 11.1904 13.5269 11.8311 14.1727Z" fill="#ED1651"/>
<path fill-rule="evenodd" clip-rule="evenodd" d="M9.05833 11.3972C9.70471 12.0416 10.7507 12.0416 11.3957 11.3972C12.039 10.7517 12.039 9.70557 11.3957 9.06036C10.7507 8.4138 9.70471 8.4138 9.05833 9.06036C8.41358 9.70557 8.41358 10.7517 9.05833 11.3972Z" fill="#ED1651"/>
<path fill-rule="evenodd" clip-rule="evenodd" d="M14.6065 11.3972C15.2523 12.0416 16.2969 12.0416 16.9425 11.3972C17.5877 10.7517 17.5877 9.70557 16.9425 9.06036C16.2969 8.4138 15.2523 8.4138 14.6065 9.06036C13.9639 9.70557 13.9639 10.7517 14.6065 11.3972Z" fill="#ED1651"/>
<path fill-rule="evenodd" clip-rule="evenodd" d="M14.1701 6.28375C14.8137 6.92895 14.8137 7.97536 14.1701 8.61947C13.5218 9.26549 12.4783 9.26549 11.8311 8.61947C11.1904 7.97536 11.1904 6.92895 11.8311 6.28375C12.4783 5.63882 13.5218 5.63882 14.1701 6.28375Z" fill="#A6CE39"/>
<path fill-rule="evenodd" clip-rule="evenodd" d="M14.1671 17.3886C14.8137 18.034 14.8137 19.0799 14.1671 19.7259C13.5218 20.3719 12.4783 20.3719 11.8311 19.7259C11.1904 19.0799 11.1904 18.034 11.8311 17.3886C12.4783 16.7442 13.5218 16.7442 14.1671 17.3886Z" fill="#ED1651"/>
<path fill-rule="evenodd" clip-rule="evenodd" d="M9.05833 16.9491C9.70471 17.5949 10.7507 17.5949 11.3957 16.9491C12.039 16.305 12.039 15.2575 11.3957 14.6126C10.7507 13.9677 9.70471 13.9677 9.05833 14.6126C8.41358 15.2575 8.41358 16.305 9.05833 16.9491Z" fill="#ED1651"/>
<path fill-rule="evenodd" clip-rule="evenodd" d="M6.28394 14.1727C6.92923 14.819 7.97354 14.819 8.61992 14.1727C9.26412 13.5269 9.26412 12.4822 8.61992 11.8356C7.97354 11.1915 6.92923 11.1915 6.28394 11.8356C5.63729 12.4822 5.63729 13.5269 6.28394 14.1727Z" fill="#ED1651"/>
</svg>
