<svg width="24" height="24" viewBox="0 0 24 24" fill="none" xmlns="http://www.w3.org/2000/svg">
<g clip-path="url(#clip0_669_41551)">
<rect width="24" height="24" rx="4" fill="url(#paint0_linear_669_41551)"/>
<g filter="url(#filter0_f_669_41551)">
<path d="M9.67006 34.8299C9.88844 34.6116 10.1422 34.4317 10.4207 34.2981L21.6745 28.8962C22.2232 28.6328 22.7419 28.311 23.2216 27.9363L25.2311 26.3663C30.2845 22.4184 37.6159 26.3879 37.0721 32.7775C36.7486 36.5791 33.5685 39.5 29.7532 39.5H11.6045C9.16725 39.5 7.94669 36.5533 9.67006 34.8299Z" fill="#EB4C57"/>
</g>
<g filter="url(#filter1_f_669_41551)">
<path d="M6.37938 -5.54064C6.6777 -5.46071 6.96033 -5.33083 7.21528 -5.15653L17.5204 1.88867C18.0228 2.23218 18.5609 2.52045 19.1252 2.74847L21.4896 3.70382C27.4354 6.10621 27.6634 14.4402 21.8579 17.164C18.4039 18.7846 14.2842 17.491 12.3766 14.1869L3.3022 -1.53037C2.08359 -3.64105 4.02522 -6.17144 6.37938 -5.54064Z" fill="#FB95B9"/>
</g>
<path d="M17.4 6.60029H14.6178V8.02208C14.6178 8.72545 14.342 9.40001 13.8511 9.89739C13.3603 10.3948 12.6945 10.6742 12.0003 10.6742C11.3061 10.6742 10.6403 10.3948 10.1494 9.89739C9.65857 9.40001 9.38279 8.72545 9.38279 8.02208V6.6001H6.59998V7.73732C6.59926 8.55409 6.7787 9.3607 7.12518 10.0982C7.47166 10.8356 7.97641 11.4853 8.60255 11.9997C7.97644 12.5141 7.47169 13.1638 7.12522 13.9012C6.77874 14.6387 6.59929 15.4453 6.59998 16.262V17.3996H9.38279V15.9776C9.38279 15.2742 9.65857 14.5996 10.1494 14.1023C10.6403 13.6049 11.3061 13.3255 12.0003 13.3255C12.6945 13.3255 13.3603 13.6049 13.8511 14.1023C14.342 14.5996 14.6178 15.2742 14.6178 15.9776V17.4001H17.4V16.2625C17.4008 15.4458 17.2214 14.6393 16.8751 13.9018C16.5287 13.1643 16.0241 12.5147 15.3981 12.0002C16.0241 11.4857 16.5287 10.836 16.8751 10.0986C17.2214 9.3611 17.4008 8.55456 17.4 7.73785V6.60029Z" fill="white"/>
</g>
<defs>
<filter id="filter0_f_669_41551" x="4.86334" y="20.7913" width="36.2374" height="22.7087" filterUnits="userSpaceOnUse" color-interpolation-filters="sRGB">
<feFlood flood-opacity="0" result="BackgroundImageFix"/>
<feBlend mode="normal" in="SourceGraphic" in2="BackgroundImageFix" result="shape"/>
<feGaussianBlur stdDeviation="2" result="effect1_foregroundBlur_669_41551"/>
</filter>
<filter id="filter1_f_669_41551" x="-2.07294" y="-10.6389" width="33.1562" height="33.4998" filterUnits="userSpaceOnUse" color-interpolation-filters="sRGB">
<feFlood flood-opacity="0" result="BackgroundImageFix"/>
<feBlend mode="normal" in="SourceGraphic" in2="BackgroundImageFix" result="shape"/>
<feGaussianBlur stdDeviation="2.5" result="effect1_foregroundBlur_669_41551"/>
</filter>
<linearGradient id="paint0_linear_669_41551" x1="12" y1="0" x2="12" y2="24" gradientUnits="userSpaceOnUse">
<stop stop-color="#FB95B9"/>
<stop offset="1" stop-color="#EF4D5A"/>
</linearGradient>
<clipPath id="clip0_669_41551">
<rect width="24" height="24" rx="4" fill="white"/>
</clipPath>
</defs>
</svg>
