<svg width="24" height="24" viewBox="0 0 24 24" fill="none" xmlns="http://www.w3.org/2000/svg">
<rect width="24" height="24" rx="4" fill="#56AE52"/>
<path fill-rule="evenodd" clip-rule="evenodd" d="M6.17815 13.4747H5.44652C4.3053 13.4747 5.1344 11 6.09519 11H7.25113C7.43641 11 7.76318 11.0348 7.92417 10.5668L8.17291 9.83984H6.58781C5.72941 9.83984 5.06123 10.1485 4.5784 10.6664C3.74437 11.5527 3.46155 12.937 3.66148 13.5992C3.8517 14.2117 4.36868 14.6149 5.17827 14.6249L5.80744 14.6299H6.58295L6.77316 14.0473C6.91457 13.634 6.59753 13.4747 6.17815 13.4747ZM15.0838 12.449L15.3228 11.6573H12.7721C12.3478 11.6573 12.1576 11.7768 12.0844 12.0257L11.8454 12.8175H14.3962C14.8205 12.8175 15.0107 12.698 15.0838 12.449ZM11.465 13.8432L11.226 14.6348H13.7767C14.1962 14.6348 14.3913 14.5154 14.4644 14.2664L14.7035 13.4747H12.1526C11.7333 13.4747 11.543 13.5942 11.465 13.8432ZM15.6789 10.6365L15.9178 9.84486H13.3671C12.9428 9.84486 12.7526 9.96429 12.6794 10.2133L12.4404 11.005H14.9912C15.4107 11.005 15.6008 10.8855 15.6789 10.6365ZM11.8259 10.7959C11.7186 10.059 11.3333 9.84486 10.3969 9.84486H8.68989L7.69494 12.8175H8.32411C8.69961 12.8175 8.88982 12.8224 9.08983 12.2747L9.50434 11H10.1384C10.6798 11 10.5578 11.6921 10.2847 12.3643C10.0408 12.9569 9.61653 13.4797 9.1044 13.4797H8.04607C7.62177 13.4797 7.4267 13.5992 7.34867 13.8481L7.08528 14.6398H7.86072L8.62158 14.6348C9.29462 14.6299 9.84576 14.5801 10.4896 13.9875C11.1723 13.3552 11.9625 11.732 11.8259 10.7959ZM20.4 9.83984H18.9222L17.5322 11.3485C17.3713 11.5228 17.2054 11.6971 17.0445 11.9012H17.0298L17.7224 9.83984H16.5177L14.8937 14.6348H16.0983L16.6153 13.1261L17.1517 12.6631L17.5761 14.0274C17.7077 14.4507 17.8444 14.6348 18.137 14.6348H19.0588L18.1126 11.956L20.4 9.83984Z" fill="white"/>
</svg>
