<svg width="40" height="40" viewBox="0 0 40 40" fill="none" xmlns="http://www.w3.org/2000/svg">
<rect width="40" height="40" rx="8" fill="#C7E0FD"/>
<path fill-rule="evenodd" clip-rule="evenodd" d="M8.0542 11.7906C8.0542 11.2384 8.50191 10.7906 9.0542 10.7906H30.9457C31.498 10.7906 31.9457 11.2384 31.9457 11.7906V27.2972C31.9457 27.8043 31.7443 28.2907 31.3857 28.6493C31.0271 29.0079 30.5407 29.2093 30.0336 29.2093H9.96635C9.45922 29.2093 8.97285 29.0079 8.61425 28.6493C8.25566 28.2907 8.0542 27.8043 8.0542 27.2972V11.7906ZM11.625 12.7906L20 20.4677L28.3749 12.7906H11.625ZM29.9457 14.0639L20.6757 22.5614C20.2934 22.9119 19.7066 22.9119 19.3242 22.5614L10.0542 14.0639V27.2093H29.9457V14.0639Z" fill="#2B2D33"/>
</svg>
