<svg width="40" height="40" viewBox="0 0 40 40" fill="none" xmlns="http://www.w3.org/2000/svg">
<rect width="40" height="40" rx="8" fill="#C1E7C7"/>
<path d="M32.0011 29H8.00109C7.56109 29 7.17442 28.72 7.05442 28.3066C6.92109 27.8933 7.06775 27.44 7.42775 27.1866C7.45442 27.1733 11.0011 24.4 11.0011 15.2C11.0011 12.6666 11.9344 10.28 13.6144 8.47996C15.6544 6.30663 18.6678 5.29329 21.5078 5.79996C22.0544 5.89329 22.4144 6.41329 22.3211 6.95996C22.2278 7.50663 21.7078 7.86663 21.1611 7.77329C18.9478 7.37329 16.6678 8.14663 15.0811 9.85329C13.7611 11.2533 13.0144 13.2133 13.0144 15.2C13.0144 21.4666 11.4544 25.0933 10.1878 27H29.8278C28.8278 25.48 27.6411 22.8933 27.1878 18.7733C27.1344 18.2266 27.5211 17.7333 28.0811 17.6666C28.6278 17.6133 29.1211 18 29.1878 18.56C29.8944 25.0933 32.5744 27.1733 32.6011 27.2C32.9478 27.4533 33.0944 27.9066 32.9611 28.32C32.8278 28.7333 32.4544 29.0133 32.0144 29.0133L32.0011 29Z" fill="#2B2D33"/>
<path d="M29.3344 15.6666C26.5744 15.6666 24.3344 13.4266 24.3344 10.6666C24.3344 7.90663 26.5744 5.66663 29.3344 5.66663C32.0944 5.66663 34.3344 7.90663 34.3344 10.6666C34.3344 13.4266 32.0944 15.6666 29.3344 15.6666ZM29.3344 7.66663C27.6811 7.66663 26.3344 9.01329 26.3344 10.6666C26.3344 12.32 27.6811 13.6666 29.3344 13.6666C30.9878 13.6666 32.3344 12.32 32.3344 10.6666C32.3344 9.01329 30.9878 7.66663 29.3344 7.66663Z" fill="#2B2D33"/>
<path d="M20.0011 34.3333C19.3611 34.3333 18.7211 34.16 18.1744 33.84C17.6144 33.52 17.1611 33.0533 16.8278 32.5066C16.5478 32.0266 16.7078 31.4133 17.1878 31.1333C17.6678 30.8533 18.2811 31.0133 18.5478 31.4933C18.6944 31.7466 18.9078 31.96 19.1611 32.1066C19.6678 32.4 20.3211 32.4 20.8278 32.1066C21.0811 31.96 21.2944 31.7466 21.4411 31.4933C21.7211 31.0133 22.3344 30.8533 22.8144 31.1333C23.2944 31.4133 23.4544 32.0266 23.1744 32.5066C22.8544 33.0666 22.3878 33.52 21.8278 33.84C21.2678 34.16 20.6411 34.3333 20.0011 34.3333Z" fill="#2B2D33"/>
</svg>
