<svg width="40" height="40" viewBox="0 0 40 40" fill="none" xmlns="http://www.w3.org/2000/svg">
<rect width="40" height="40" rx="8" fill="#FAD3C5"/>
<path d="M27.0002 32H13.0002C12.4669 32 11.9602 31.7866 11.5869 31.4133C11.2136 31.04 11.0002 30.52 11.0002 30V20H8.61358C8.24024 20 7.88024 19.8933 7.56024 19.7066C7.24024 19.5066 6.98691 19.2266 6.82691 18.8933L4.53358 14.2933C4.30691 13.8266 4.26691 13.3066 4.41358 12.8133C4.56024 12.32 4.89358 11.9066 5.33358 11.6533L11.4936 8.14662C11.5736 8.10662 11.6536 8.06662 11.7469 8.03995C11.8402 8.01329 11.9336 7.99995 12.0269 8.01329H16.0136C16.5602 8.01329 17.0136 8.46662 17.0136 9.01329C17.0136 9.81329 17.3202 10.5733 17.8936 11.1333C19.0269 12.2666 21.0136 12.2533 22.1336 11.1333C22.6936 10.5733 23.0136 9.79995 23.0136 9.01329C23.0136 8.46662 23.4669 8.01329 24.0136 8.01329H28.0002C28.0936 8.01329 28.1869 8.01329 28.2802 8.05329C28.3736 8.07995 28.4536 8.10662 28.5336 8.15995L34.6936 11.68C35.1469 11.9466 35.4669 12.3466 35.6136 12.84C35.7602 13.3333 35.7202 13.8533 35.4936 14.3066L33.1869 18.9066C33.0269 19.24 32.7736 19.52 32.4536 19.7066C32.1336 19.9066 31.7736 20 31.4002 20H29.0136V30C29.0136 30.52 28.8002 31.04 28.4269 31.4133C28.0536 31.7866 27.5469 32 27.0136 32H27.0002ZM13.0002 9.99995V30H27.0002V9.99995H24.9069C24.7202 10.96 24.2402 11.8266 23.5469 12.5333C21.6536 14.4266 18.3602 14.4266 16.4802 12.5333C15.7736 11.8266 15.3069 10.9466 15.1202 9.99995H13.0269H13.0002ZM11.0002 10.72L6.32024 13.4L8.61358 18.0133H11.0002V10.72ZM29.0002 18H31.3869L33.6802 13.4L29.0002 10.72V18Z" fill="#2B2D33"/>
</svg>
