<svg width="40" height="40" viewBox="0 0 40 40" fill="none" xmlns="http://www.w3.org/2000/svg">
<rect width="40" height="40" rx="8" fill="#FBE59A"/>
<path fill-rule="evenodd" clip-rule="evenodd" d="M10.7282 20.5209C11.2667 19.3793 12.8681 19.3793 13.4066 20.5209L14.5649 22.9768L17.1367 23.3703C18.4011 23.5637 18.7821 25.0939 17.9677 25.9245L16.0811 27.8477L16.5281 30.5754C16.7136 31.7072 15.5346 32.7968 14.3557 32.148L12.0674 30.8885L9.77917 32.1479C8.60021 32.7968 7.42118 31.7072 7.60667 30.5754L8.05367 27.8477L6.16727 25.9247C5.35269 25.094 5.73377 23.5637 6.99804 23.3703L9.56994 22.9768L10.7282 20.5209ZM12.0674 22.37L11.1518 24.3114C11.0098 24.6123 10.7275 24.823 10.3986 24.8733L8.25871 25.2007L9.83633 26.8089C10.0594 27.0364 10.1608 27.3565 10.1093 27.6709L9.74684 29.8828L11.5852 28.871C11.8854 28.7058 12.2494 28.7058 12.5496 28.871L14.388 29.8828L14.0255 27.6709C13.974 27.3565 14.0754 27.0364 14.2985 26.8089L15.8761 25.2007L13.7362 24.8733C13.4073 24.823 13.125 24.6123 12.983 24.3114L12.0674 22.37Z" fill="#2B2D33"/>
<path fill-rule="evenodd" clip-rule="evenodd" d="M28.0679 22.37L28.9836 24.3114C29.1255 24.6124 29.4079 24.823 29.7368 24.8733L31.8766 25.2007L30.299 26.8089C30.0759 27.0364 29.9745 27.3565 30.026 27.6709L30.3885 29.8828L28.5501 28.871C28.2499 28.7058 27.8859 28.7058 27.5857 28.871L25.7474 29.8828L26.1098 27.6709C26.1613 27.3565 26.0599 27.0364 25.8368 26.8089L24.2592 25.2007L26.399 24.8733C26.7279 24.823 27.0103 24.6124 27.1522 24.3114L28.0679 22.37ZM29.4071 20.5211C28.8689 19.3793 27.2672 19.3792 26.7288 20.5209L25.5704 22.9768L22.9986 23.3703C21.7342 23.5637 21.3532 25.0939 22.1676 25.9245L24.0542 27.8477L23.6072 30.5752C23.4216 31.7074 24.6008 32.7966 25.7796 32.148L28.0679 30.8885L30.3561 32.1479C31.5349 32.7966 32.7143 31.7074 32.5286 30.5752L32.0816 27.8477L33.968 25.9247C34.7824 25.0941 34.4017 23.5637 33.1373 23.3703L30.5654 22.9768L29.4071 20.5211Z" fill="#2B2D33"/>
<path fill-rule="evenodd" clip-rule="evenodd" d="M20.0674 10.3701L20.9831 12.3115C21.125 12.6124 21.4074 12.8231 21.7363 12.8734L23.876 13.2007L22.2985 14.8089C22.0754 15.0363 21.974 15.3565 22.0255 15.6709L22.388 17.8828L20.5496 16.871C20.2494 16.7057 19.8854 16.7057 19.5852 16.871L17.7468 17.8828L18.1093 15.6709C18.1608 15.3565 18.0594 15.0363 17.8363 14.8089L16.2588 13.2007L18.3985 12.8734C18.7274 12.8231 19.0098 12.6124 19.1517 12.3115L20.0674 10.3701ZM21.4066 8.52113C20.8684 7.37927 19.2666 7.37919 18.7283 8.52089L17.5699 10.9769L14.9981 11.3703C13.734 11.5637 13.3523 13.0939 14.1673 13.9246L16.0537 15.8476L15.6067 18.5753C15.4212 19.7072 16.6002 20.7968 17.7791 20.148L20.0674 18.8885L22.3556 20.1479C23.5344 20.7966 24.7138 19.7074 24.5281 18.5752L24.0811 15.8476L25.9675 13.9246C26.7822 13.094 26.401 11.5637 25.1368 11.3703L22.5649 10.9769L21.4066 8.52113Z" fill="#2B2D33"/>
</svg>
